<svg width="814px" viewBox="0 0 814 247" version="1.1" xmlns="http://www.w3.org/2000/svg" xmlns:xlink="http://www.w3.org/1999/xlink">
    <path d="M772.499236,0 C756.207998,0 743,13.2079979 743,29.4992364 C743,45.7920021 756.207998,59 772.499236,59 C788.792002,59 802,45.7920021 802,29.4992364 C802,13.2079979 788.792002,0 772.499236,0 Z M492.326079,88 C488.378202,88 485.802314,92.1542915 487.565003,95.6906644 L543.403161,207.680853 L558.546534,238.057311 C560.504572,241.976854 566.097019,241.981398 568.064143,238.067913 L583.293833,207.680853 L639.428802,95.6997514 C641.20209,92.1633786 638.63226,88 634.672268,88 L492.326079,88 Z M814,93.2997485 L814,167.497736 C814,211.407782 778.407445,247 734.496982,247 C690.592555,247 655,211.407782 655,167.497736 L655,93.2997485 C655,90.3722109 657.372233,88 660.295272,88 L779.549799,88 L795.867203,88 L808.700201,88 C811.627767,88 814,90.3722109 814,93.2997485 Z M498,167.497736 C498,211.407782 462.407715,247 418.497586,247 C374.592436,247 339,211.407782 339,167.497736 C339,123.592218 374.592436,88 418.497586,88 C462.407715,88 498,123.592218 498,167.497736 Z M148.791917,88 L5.29990946,88 C2.37214785,88 0,90.3722109 0,93.2997485 L0,122.445347 C0,125.374394 2.37214785,127.746605 5.29990946,127.746605 L72.3191222,127.746605 C76.5918554,127.746605 79.1079618,132.545352 76.6811882,136.062924 L5.74657343,238.686699 C3.31497099,242.199744 5.83092653,247 10.1036598,247 L153.69994,247 C156.622872,247 159,244.627789 159,241.698742 L159,212.548617 C159,209.621079 156.622872,207.248868 153.69994,207.248868 L85.3755929,207.248868 C81.0829409,207.248868 78.5719651,202.415413 81.0382745,198.900859 L153.129236,96.3480093 C155.600525,92.8334551 153.084569,88 148.791917,88 Z M327,167.497736 C327,211.407782 291.407463,247 247.49751,247 C203.592537,247 168,211.407782 168,167.497736 C168,123.592218 203.592537,88 247.49751,88 C291.407463,88 327,123.592218 327,167.497736 Z M723,29.4992364 C723,45.7920021 709.792002,59 693.499236,59 C677.207998,59 664,45.7920021 664,29.4992364 C664,13.2079979 677.207998,0 693.499236,0 C709.792002,0 723,13.2079979 723,29.4992364 Z" fill="#3B0078" fill-rule="evenodd"></path>
</svg>