<?xml version="1.0" encoding="UTF-8" standalone="no"?>
<!DOCTYPE svg PUBLIC "-//W3C//DTD SVG 20010904//EN"
              "http://www.w3.org/TR/2001/REC-SVG-20010904/DTD/svg10.dtd">

<svg xmlns="http://www.w3.org/2000/svg"
     width="7.9in" height="8.42222in"
     viewBox="0 0 711 758">
  <path fill="#ffffff" fill-rule="evenodd"
        d="M 541.00,23.48
           C 553.91,21.61 565.38,24.82 573.35,35.83
             575.37,38.62 576.76,42.69 577.62,46.00
             582.08,63.20 571.54,80.09 554.00,83.78
             524.16,90.05 503.45,51.80 528.00,30.13
             531.79,26.79 536.16,24.76 541.00,23.48 Z
           M 618.00,67.08
           C 623.78,67.37 627.10,72.11 631.00,76.00
             631.00,76.00 657.00,102.00 657.00,102.00
             677.30,122.30 691.74,132.77 698.00,162.28
             699.53,169.50 699.57,176.71 699.07,184.00
             696.10,226.57 659.94,260.20 617.00,258.94
             601.37,258.49 585.90,253.65 572.96,244.81
             572.96,244.81 532.00,205.00 532.00,205.00
             532.00,205.00 514.00,187.00 514.00,187.00
             511.90,184.89 507.63,181.15 507.63,178.00
             507.63,174.85 511.90,171.11 514.00,169.00
             514.00,169.00 533.00,150.00 533.00,150.00
             533.00,150.00 591.00,92.00 591.00,92.00
             596.72,86.28 611.68,69.63 618.00,67.08 Z
           M 493.00,78.71
           C 498.08,78.93 502.51,80.01 507.00,82.48
             534.26,97.47 524.07,139.91 493.00,139.99
             460.98,140.08 450.65,101.69 474.00,84.49
             480.15,79.96 485.63,79.08 493.00,78.71 Z
           M 495.00,190.08
           C 501.86,190.42 502.67,195.60 504.31,201.17
             504.31,201.17 510.82,220.42 510.82,220.42
             510.82,220.42 526.15,265.99 526.15,265.99
             526.15,265.99 542.99,316.99 542.99,316.99
             542.99,316.99 548.74,335.00 548.74,335.00
             549.52,337.38 552.06,343.94 552.18,346.00
             552.37,349.27 550.13,352.38 546.98,353.31
             544.26,354.12 538.75,352.06 536.00,351.16
             536.00,351.16 513.00,343.49 513.00,343.49
             513.00,343.49 452.42,323.03 452.42,323.03
             452.42,323.03 423.00,313.23 423.00,313.23
             423.00,313.23 396.27,304.34 396.27,304.34
             393.24,303.20 389.02,301.29 388.61,297.58
             388.26,294.39 391.98,291.06 394.00,289.00
             394.00,289.00 412.00,271.00 412.00,271.00
             412.00,271.00 468.00,215.00 468.00,215.00
             473.72,209.28 488.68,192.63 495.00,190.08 Z
           M 383.00,321.46
           C 433.25,314.53 476.43,352.30 476.00,403.00
             475.92,412.19 474.86,416.93 472.25,425.72
             469.45,435.17 464.78,444.26 458.65,452.04
             451.18,461.49 441.58,468.48 431.00,474.00
             416.54,481.53 404.85,482.18 389.00,482.00
             383.06,481.93 378.10,480.54 372.42,478.99
             338.63,469.73 313.22,435.58 314.26,400.39
             315.14,370.55 332.22,342.62 359.00,328.98
             366.55,325.13 374.78,323.22 383.00,321.46 Z
           M 262.00,442.44
           C 279.65,440.18 298.46,443.05 314.04,451.84
             357.50,476.38 368.35,534.13 337.65,573.04
             329.99,582.74 319.92,589.97 309.00,595.53
             296.65,601.80 283.60,603.12 270.00,603.00
             259.77,602.90 248.57,599.80 239.43,595.33
             202.67,577.32 184.68,535.99 197.52,497.00
             201.85,483.84 207.26,475.75 217.00,466.00
             231.16,451.83 242.44,446.05 262.00,442.44 Z
           M 150.00,534.08
           C 154.44,533.14 156.90,534.69 158.57,539.02
             158.57,539.02 162.93,563.17 162.93,563.17
             162.93,563.17 173.23,623.04 173.23,623.04
             173.23,623.04 175.87,637.00 175.87,637.00
             175.87,637.00 179.08,656.00 179.08,656.00
             179.56,658.61 180.38,662.60 182.86,664.09
             186.59,666.32 195.43,655.57 198.00,653.00
             198.00,653.00 228.00,623.00 228.00,623.00
             231.01,619.99 236.26,613.32 241.00,614.66
             243.70,615.42 247.01,619.02 249.00,621.00
             249.00,621.00 262.94,635.00 262.94,635.00
             264.99,637.25 267.27,639.70 266.34,643.00
             265.53,645.88 261.15,649.84 259.00,652.00
             259.00,652.00 242.00,669.00 242.00,669.00
             242.00,669.00 185.00,726.00 185.00,726.00
             185.00,726.00 170.00,741.00 170.00,741.00
             167.69,743.30 164.05,747.36 161.00,748.39
             157.05,749.72 153.82,747.77 152.56,743.96
             152.56,743.96 148.00,720.00 148.00,720.00
             148.00,720.00 134.24,644.59 134.24,644.59
             134.24,644.59 130.65,626.00 130.65,626.00
             130.04,623.54 129.50,620.47 126.94,619.27
             122.73,617.28 114.76,627.24 112.00,630.00
             112.00,630.00 83.00,659.00 83.00,659.00
             80.05,661.95 74.54,668.79 70.00,667.88
             67.16,667.32 64.01,663.97 62.00,662.00
             62.00,662.00 48.06,648.00 48.06,648.00
             46.01,645.75 43.73,643.30 44.66,640.00
             45.51,636.98 50.69,632.31 53.00,630.00
             53.00,630.00 72.00,611.00 72.00,611.00
             72.00,611.00 123.00,560.00 123.00,560.00
             128.90,554.10 144.16,537.82 150.00,534.08 Z" />
</svg>
